<svg viewBox="0 0 512 512" fill="none" xmlns="http://www.w3.org/2000/svg">
<g clip-path="url(#clip0_101_42)">
<g filter="url(#filter0_dd_101_42)">
<path d="M191.279 154.995C213.579 215.358 172.046 284.057 172.046 284.057C172.046 284.057 95.8263 258.858 73.5271 198.495C66.9558 180.707 66.8567 161.356 73.2515 144.699C79.6464 128.042 92.0113 115.444 107.626 109.675C123.241 103.907 140.827 105.441 156.515 113.94C172.203 122.439 184.708 137.207 191.279 154.995Z" fill="#E8EAEC"/>
<path d="M191.279 154.995C213.579 215.358 172.046 284.057 172.046 284.057C172.046 284.057 95.8263 258.858 73.5271 198.495C66.9558 180.707 66.8567 161.356 73.2515 144.699C79.6464 128.042 92.0113 115.444 107.626 109.675C123.241 103.907 140.827 105.441 156.515 113.94C172.203 122.439 184.708 137.207 191.279 154.995Z" fill="#E8EAEC"/>
<path d="M191.279 154.995C213.579 215.358 172.046 284.057 172.046 284.057C172.046 284.057 95.8263 258.858 73.5271 198.495C66.9558 180.707 66.8567 161.356 73.2515 144.699C79.6464 128.042 92.0113 115.444 107.626 109.675C123.241 103.907 140.827 105.441 156.515 113.94C172.203 122.439 184.708 137.207 191.279 154.995Z" fill="#E8EAEC"/>
<path d="M191.279 154.995C213.579 215.358 172.046 284.057 172.046 284.057C172.046 284.057 95.8263 258.858 73.5271 198.495C66.9558 180.707 66.8567 161.356 73.2515 144.699C79.6464 128.042 92.0113 115.444 107.626 109.675C123.241 103.907 140.827 105.441 156.515 113.94C172.203 122.439 184.708 137.207 191.279 154.995Z" stroke="#F11414" stroke-width="12" stroke-linecap="round" stroke-linejoin="round"/>
<path d="M191.279 154.995C213.579 215.358 172.046 284.057 172.046 284.057C172.046 284.057 95.8263 258.858 73.5271 198.495C66.9558 180.707 66.8567 161.356 73.2515 144.699C79.6464 128.042 92.0113 115.444 107.626 109.675C123.241 103.907 140.827 105.441 156.515 113.94C172.203 122.439 184.708 137.207 191.279 154.995Z" stroke="#E8EAEC" stroke-width="12" stroke-linecap="round" stroke-linejoin="round"/>
<path d="M191.279 154.995C213.579 215.358 172.046 284.057 172.046 284.057C172.046 284.057 95.8263 258.858 73.5271 198.495C66.9558 180.707 66.8567 161.356 73.2515 144.699C79.6464 128.042 92.0113 115.444 107.626 109.675C123.241 103.907 140.827 105.441 156.515 113.94C172.203 122.439 184.708 137.207 191.279 154.995Z" stroke="black" stroke-width="12" stroke-linecap="round" stroke-linejoin="round"/>
</g>
</g>
<g filter="url(#filter1_d_101_42)">
<ellipse cx="234.536" cy="285.64" rx="177.938" ry="169.32" fill="#E8EAEC"/>
<path d="M404.974 285.64C404.974 374.664 329.021 447.46 234.536 447.46C140.05 447.46 64.0974 374.664 64.0974 285.64C64.0974 196.616 140.05 123.82 234.536 123.82C329.021 123.82 404.974 196.616 404.974 285.64Z" stroke="white" stroke-width="15"/>
<path d="M404.974 285.64C404.974 374.664 329.021 447.46 234.536 447.46C140.05 447.46 64.0974 374.664 64.0974 285.64C64.0974 196.616 140.05 123.82 234.536 123.82C329.021 123.82 404.974 196.616 404.974 285.64Z" stroke="black" stroke-width="15"/>
</g>
<g clip-path="url(#clip1_101_42)">
<g filter="url(#filter2_d_101_42)">
<path d="M422.479 191.729C384.242 243.487 304.019 246.448 304.019 246.448C304.019 246.448 283.276 168.897 321.513 117.139C332.781 101.886 348.906 91.1879 366.341 87.3971C383.776 83.6062 401.092 87.0334 414.481 96.9246C427.87 106.816 436.235 122.361 437.735 140.14C439.235 157.919 433.747 176.476 422.479 191.729Z" fill="#D85040"/>
<path d="M422.479 191.729C384.242 243.487 304.019 246.448 304.019 246.448C304.019 246.448 283.276 168.897 321.513 117.139C332.781 101.886 348.906 91.1879 366.341 87.3971C383.776 83.6062 401.092 87.0334 414.481 96.9246C427.87 106.816 436.235 122.361 437.735 140.14C439.235 157.919 433.747 176.476 422.479 191.729Z" stroke="#F11414" stroke-width="12" stroke-linecap="round" stroke-linejoin="round"/>
<path d="M422.479 191.729C384.242 243.487 304.019 246.448 304.019 246.448C304.019 246.448 283.276 168.897 321.513 117.139C332.781 101.886 348.906 91.1879 366.341 87.3971C383.776 83.6062 401.092 87.0334 414.481 96.9246C427.87 106.816 436.235 122.361 437.735 140.14C439.235 157.919 433.747 176.476 422.479 191.729Z" stroke="#D85040" stroke-width="12" stroke-linecap="round" stroke-linejoin="round"/>
<path d="M422.479 191.729C384.242 243.487 304.019 246.448 304.019 246.448C304.019 246.448 283.276 168.897 321.513 117.139C332.781 101.886 348.906 91.1879 366.341 87.3971C383.776 83.6062 401.092 87.0334 414.481 96.9246C427.87 106.816 436.235 122.361 437.735 140.14C439.235 157.919 433.747 176.476 422.479 191.729Z" stroke="black" stroke-width="12" stroke-linecap="round" stroke-linejoin="round"/>
</g>
<path d="M355.002 177.437C366.154 185.676 382.804 182.056 392.189 169.352C401.575 156.647 400.143 139.669 388.99 131.43C377.838 123.191 361.188 126.811 351.803 139.516C342.417 152.22 343.849 169.198 355.002 177.437Z" fill="#EDEDED" stroke="#EDEDED" stroke-width="12" stroke-linecap="round" stroke-linejoin="round"/>
</g>
<defs>
<filter id="filter0_dd_101_42" x="58.526" y="100.236" width="149.333" height="197.822" filterUnits="userSpaceOnUse" color-interpolation-filters="sRGB">
<feFlood flood-opacity="0" result="BackgroundImageFix"/>
<feColorMatrix in="SourceAlpha" type="matrix" values="0 0 0 0 0 0 0 0 0 0 0 0 0 0 0 0 0 0 127 0" result="hardAlpha"/>
<feOffset dy="4"/>
<feGaussianBlur stdDeviation="2"/>
<feComposite in2="hardAlpha" operator="out"/>
<feColorMatrix type="matrix" values="0 0 0 0 0 0 0 0 0 0 0 0 0 0 0 0 0 0 0.25 0"/>
<feBlend mode="normal" in2="BackgroundImageFix" result="effect1_dropShadow_101_42"/>
<feColorMatrix in="SourceAlpha" type="matrix" values="0 0 0 0 0 0 0 0 0 0 0 0 0 0 0 0 0 0 127 0" result="hardAlpha"/>
<feOffset dy="4"/>
<feGaussianBlur stdDeviation="2"/>
<feComposite in2="hardAlpha" operator="out"/>
<feColorMatrix type="matrix" values="0 0 0 0 0 0 0 0 0 0 0 0 0 0 0 0 0 0 0.25 0"/>
<feBlend mode="normal" in2="effect1_dropShadow_101_42" result="effect2_dropShadow_101_42"/>
<feBlend mode="normal" in="SourceGraphic" in2="effect2_dropShadow_101_42" result="shape"/>
</filter>
<filter id="filter1_d_101_42" x="52.5974" y="116.32" width="363.876" height="346.64" filterUnits="userSpaceOnUse" color-interpolation-filters="sRGB">
<feFlood flood-opacity="0" result="BackgroundImageFix"/>
<feColorMatrix in="SourceAlpha" type="matrix" values="0 0 0 0 0 0 0 0 0 0 0 0 0 0 0 0 0 0 127 0" result="hardAlpha"/>
<feOffset dy="4"/>
<feGaussianBlur stdDeviation="2"/>
<feComposite in2="hardAlpha" operator="out"/>
<feColorMatrix type="matrix" values="0 0 0 0 0 0 0 0 0 0 0 0 0 0 0 0 0 0 0.25 0"/>
<feBlend mode="normal" in2="BackgroundImageFix" result="effect1_dropShadow_101_42"/>
<feBlend mode="normal" in="SourceGraphic" in2="effect1_dropShadow_101_42" result="shape"/>
</filter>
<filter id="filter2_d_101_42" x="288.402" y="79.8907" width="159.576" height="180.557" filterUnits="userSpaceOnUse" color-interpolation-filters="sRGB">
<feFlood flood-opacity="0" result="BackgroundImageFix"/>
<feColorMatrix in="SourceAlpha" type="matrix" values="0 0 0 0 0 0 0 0 0 0 0 0 0 0 0 0 0 0 127 0" result="hardAlpha"/>
<feOffset dy="4"/>
<feGaussianBlur stdDeviation="2"/>
<feComposite in2="hardAlpha" operator="out"/>
<feColorMatrix type="matrix" values="0 0 0 0 0 0 0 0 0 0 0 0 0 0 0 0 0 0 0.25 0"/>
<feBlend mode="normal" in2="BackgroundImageFix" result="effect1_dropShadow_101_42"/>
<feBlend mode="normal" in="SourceGraphic" in2="effect1_dropShadow_101_42" result="shape"/>
</filter>
<clipPath id="clip0_101_42">
<rect width="200.848" height="228.801" fill="white" transform="translate(13 100.325) rotate(-20.2752)"/>
</clipPath>
<clipPath id="clip1_101_42">
<rect width="200.848" height="228.801" fill="white" transform="translate(346.454 20) rotate(36.4555)"/>
</clipPath>
</defs>
</svg>
